<svg xmlns="http://www.w3.org/2000/svg" width="64" height="64" viewBox="0 0 64 64" role="img" aria-labelledby="title">
  <title>Flashcard Studio icon</title>
  <defs>
    <linearGradient id="bgGradient" x1="0%" y1="0%" x2="100%" y2="100%">
      <stop offset="0%" stop-color="#3f87ff" />
      <stop offset="100%" stop-color="#7f5cff" />
    </linearGradient>
  </defs>
  <rect x="4" y="4" width="56" height="56" rx="14" fill="url(#bgGradient)" />
  <path d="M21 22h22a3 3 0 0 1 3 3v6.5a3 3 0 0 1-3 3H33l6.5 7.5a2.5 2.5 0 0 1-1.9 4.1h-12a3 3 0 0 1-3-3V41l-6.6-7.6a2.5 2.5 0 0 1 1.9-4.1H31l-6.5-7.3a2.5 2.5 0 0 1 1.9-4.1Z" fill="#f8fafc" opacity="0.95" />
</svg>
